<svg width="600" height="361" viewBox="0 0 600 361" fill="none" xmlns="http://www.w3.org/2000/svg">
<path d="M169.14 130.393C168.484 151.671 179.077 161.045 179.359 167.045C179.235 168.264 178.822 169.437 178.153 170.464C177.485 171.491 176.58 172.344 175.515 172.95L163.516 181.387C161.968 182.462 160.148 183.079 158.266 183.168C157.891 183.168 150.579 184.855 139.048 159.171C132.025 167.952 123.085 175.01 112.913 179.803C102.741 184.596 91.6063 186.998 80.3627 186.824C65.0821 187.667 23.74 178.2 25.8962 134.142C24.3962 98.2399 57.8636 75.93 92.3622 77.8047C99.0182 77.8047 112.611 78.1797 136.423 83.7103V69.087C138.954 44.246 122.642 25.0294 94.4246 27.9354C92.1747 27.9354 76.2378 27.4667 51.4889 37.403C44.5516 40.5902 43.7079 40.0277 41.3643 40.0277C34.4271 40.0277 37.2394 19.8738 38.6456 17.3428C43.5204 11.3435 72.3005 0.0947336 100.424 0.282212C119.284 -1.37807 138.04 4.44702 152.641 16.4991C158.584 23.1393 163.119 30.9159 165.971 39.3586C168.823 47.8013 169.933 56.7347 169.234 65.6186V130.58L169.14 130.393ZM88.1436 160.764C118.517 160.295 131.454 142.016 134.36 132.174C136.704 122.706 136.329 116.8 136.329 106.489C127.236 104.333 114.205 101.896 99.2057 101.896C84.9562 100.865 59.0823 107.145 60.1135 132.174C58.9886 147.922 70.5193 161.608 88.2374 160.764H88.1436ZM248.356 182.418C240.95 183.074 237.575 177.825 236.45 172.669L189.764 18.2802C188.827 15.6555 188.264 12.937 187.983 10.2186C187.89 9.65152 187.911 9.07155 188.046 8.5128C188.18 7.95405 188.425 7.42778 188.765 6.96493C189.106 6.50207 189.536 6.11196 190.029 5.81753C190.523 5.52309 191.07 5.33028 191.639 5.25041C191.827 5.25041 189.671 5.25041 212.545 5.25041C220.794 4.40675 223.419 10.8748 224.357 14.9993L257.824 146.984L288.948 14.9993C289.417 11.9996 291.667 4.59423 300.947 5.43788H317.072C319.134 5.2504 327.478 4.96919 328.977 15.1868L360.289 148.859L394.694 15.1868C395.162 13.1245 397.225 4.50049 406.599 5.43788H425.067C425.911 5.34414 430.88 4.68797 430.036 13.4995C429.661 15.2805 433.223 3.46934 380.538 172.763C379.413 177.918 376.038 183.168 368.632 182.512H351.102C340.883 183.637 339.383 173.419 339.196 172.388L308.166 43.8711L277.417 172.294C277.23 173.325 275.823 183.449 265.511 182.418H248.356ZM504.751 187.667C499.22 187.667 472.972 187.386 450.941 176.137C448.755 175.21 446.894 173.655 445.592 171.669C444.291 169.684 443.607 167.357 443.629 164.982V154.859C443.629 146.891 449.441 148.391 451.879 149.328C461.253 153.171 467.347 155.983 478.878 158.327C513.282 165.357 528.375 156.171 532.032 154.109C544.406 146.797 545.344 130.018 537 121.3C527.157 113.051 522.47 112.77 487.221 101.615C482.909 100.396 446.254 88.866 446.16 52.4951C445.598 26.0606 469.69 -0.186481 511.314 0.000998402C523.219 0.000998402 554.812 3.84432 563.437 14.6244C564.749 16.5929 565.312 18.9364 565.218 21.1861V30.6538C565.218 34.7783 563.718 36.9343 560.624 36.9343C553.406 36.0907 540.562 26.4355 514.501 26.8105C508.033 26.4355 477.096 27.6541 478.503 50.2453C478.128 68.0558 503.439 74.7113 506.345 75.4613C540.562 85.7726 552 87.4599 565.499 103.208C581.53 124.112 572.905 148.484 569.624 155.14C551.718 190.292 505.501 187.386 504.658 187.386L504.751 187.667ZM542.437 286C476.815 334.463 381.475 360.335 300.104 360.335C190.29 361.051 84.1817 320.657 2.64712 247.098C-3.44638 241.568 1.89715 233.975 9.39684 238.193C99.8552 289.925 202.271 317.102 306.478 317.028C384.301 316.597 461.272 300.797 532.969 270.533C544.031 265.846 553.406 277.845 542.437 285.906V286ZM569.811 254.785C561.374 244.005 514.22 249.723 493.127 252.254C486.752 253.004 485.721 247.473 491.44 243.349C529.032 216.914 590.717 224.507 597.748 233.412C604.872 242.317 595.779 304.092 560.624 333.62C555.187 338.213 550.031 335.776 552.468 329.776C560.343 309.81 578.155 265.565 569.718 254.785H569.811Z" fill="white"/>
</svg>
