<svg width="591" height="414" viewBox="0 0 591 414" fill="none" xmlns="http://www.w3.org/2000/svg">
<path d="M323.129 188.753H262.094V133.873H323.129V188.753ZM323.129 0H262.094V56.0808H323.129V0ZM395.337 133.781H334.302V188.661H395.337V133.781ZM251.013 67.1676H189.978V122.694H251.013V67.1676ZM323.129 67.1676H262.094V122.694H323.129V67.1676ZM578.719 159.558C565.423 150.596 534.766 147.362 511.22 151.797C508.173 129.623 495.8 110.314 473.27 92.9444L460.343 84.3522L451.755 97.2868C434.765 122.971 430.148 165.286 448.339 193.188C440.305 197.53 424.516 203.443 403.647 203.073H2.25635C-5.77701 250.008 7.61192 310.985 42.8848 352.838C77.142 393.397 128.482 414 195.611 414C340.95 414 448.523 347.017 498.847 225.339C518.607 225.709 561.267 225.432 583.151 183.579C584.536 181.269 589.246 171.384 591 167.78L578.719 159.558ZM106.782 133.781H45.8396V188.661H106.875V133.781H106.782ZM178.898 133.781H117.863V188.661H178.898V133.781ZM251.013 133.781H189.978V188.661H251.013V133.781ZM178.898 67.1676H117.863V122.694H178.898V67.1676Z" fill="white"/>
</svg>
