<svg width="405" height="560" viewBox="0 0 405 560" fill="none" xmlns="http://www.w3.org/2000/svg">
<path fill-rule="evenodd" clip-rule="evenodd" d="M76.6788 0.791992C74.604 1.61802 70.9278 4.88382 69.8641 6.84601C69.2303 8.01446 67.7601 16.9408 60.5487 63.404C59.074 72.9033 56.3436 90.4751 54.4811 102.452C47.3574 148.269 41.9882 182.835 38.7951 203.453C32.7283 242.621 21.9801 311.808 16.3409 347.994C14.9262 357.073 13.8393 364.571 13.9256 364.658C14.0111 364.744 15.7266 361.878 17.7361 358.288C22.0866 350.519 62.5859 277.936 67.6769 268.784C69.6301 265.273 79.4211 247.702 89.4357 229.736C122.19 170.975 143.558 132.621 147.656 125.231L151.683 117.973L121.964 62.1529C105.618 31.4518 91.3582 5.36217 90.2751 4.17569C86.7886 0.356451 81.2409 -1.02376 76.6788 0.791992ZM196.675 80.5222C193.075 82.4274 195.109 78.9626 148.333 162.903C138.092 181.282 122.456 209.329 113.587 225.23C104.718 241.131 91.8188 264.278 84.9209 276.669C66.2164 310.266 52.9502 334.074 29.2681 376.543C17.5223 397.606 7.49273 415.685 6.97966 416.718C6.46735 417.75 26.3975 398.151 51.2685 373.164C99.532 324.674 206.499 216.979 237.55 185.614L256.326 166.647L251.902 158.205C242.73 140.699 239.392 134.32 231.571 119.348C211.921 81.738 212.423 82.6023 209.055 80.6259C205.091 78.301 200.936 78.2657 196.675 80.5222ZM334.337 116.246C333.1 117.015 330.737 119.005 329.087 120.669C327.437 122.333 301.108 148.828 270.579 179.545C240.05 210.263 189.267 261.409 157.727 293.204C126.188 324.997 77.7964 373.695 50.1913 401.421L0 451.831L12.6482 458.976C63.4163 487.656 97.3245 506.788 110.808 514.363C119.472 519.23 140.376 531.005 157.26 540.531C183.839 555.525 188.712 558.018 193.563 559.098C200.282 560.594 207.923 560.212 213.948 558.078C216.217 557.275 246.932 540.468 282.206 520.729C317.479 500.99 357.647 478.519 371.467 470.792C385.288 463.066 398.554 455.638 400.948 454.285C404.845 452.081 405.258 451.618 404.895 449.853C404.673 448.768 398.916 413.076 392.103 370.535C349.191 102.585 352.525 122.716 350.639 120.165C346.795 114.969 339.296 113.166 334.337 116.246Z" fill="white"/>
</svg>
