<svg width="543" height="530" viewBox="0 0 543 530" fill="none" xmlns="http://www.w3.org/2000/svg">
<path d="M181.62 426.755C181.62 428.947 179.102 430.701 175.928 430.701C172.315 431.029 169.797 429.276 169.797 426.755C169.797 424.563 172.315 422.81 175.49 422.81C178.774 422.481 181.62 424.235 181.62 426.755ZM147.573 421.824C146.807 424.015 148.997 426.536 152.281 427.194C155.127 428.29 158.411 427.194 159.068 425.002C159.725 422.81 157.645 420.289 154.361 419.303C151.515 418.536 148.34 419.632 147.573 421.824ZM195.962 419.96C192.787 420.728 190.597 422.81 190.926 425.331C191.254 427.522 194.101 428.947 197.385 428.18C200.56 427.413 202.749 425.331 202.421 423.139C202.092 421.056 199.136 419.632 195.962 419.96ZM267.997 0C116.154 0 0 115.401 0 267.407C0 388.946 76.4141 492.949 185.561 529.553C199.574 532.074 204.501 523.416 204.501 516.293C204.501 509.498 204.172 472.017 204.172 449.003C204.172 449.003 127.539 465.442 111.446 416.344C111.446 416.344 98.9661 384.452 81.0121 376.233C81.0121 376.233 55.9421 359.027 82.7637 359.356C82.7637 359.356 110.023 361.547 125.021 387.631C148.997 429.933 189.174 417.769 204.829 410.535C207.347 393.001 214.463 380.836 222.345 373.603C161.148 366.808 99.404 357.931 99.404 252.502C99.404 222.364 107.724 207.24 125.24 187.952C122.394 180.828 113.089 151.458 128.087 113.538C150.967 106.415 203.625 143.128 203.625 143.128C225.52 136.991 249.057 133.813 272.376 133.813C295.694 133.813 319.231 136.991 341.127 143.128C341.127 143.128 393.784 106.305 416.665 113.538C431.663 151.567 422.358 180.828 419.511 187.952C437.027 207.35 447.756 222.474 447.756 252.502C447.756 358.26 383.275 366.698 322.078 373.603C332.15 382.26 340.689 398.699 340.689 424.454C340.689 461.387 340.36 507.087 340.36 516.074C340.36 523.197 345.396 531.855 359.3 529.334C468.775 492.949 543 388.946 543 267.407C543 115.401 419.84 0 267.997 0ZM106.41 377.986C104.987 379.082 105.316 381.603 107.177 383.685C108.928 385.439 111.446 386.206 112.87 384.781C114.293 383.685 113.964 381.165 112.103 379.082C110.352 377.329 107.834 376.562 106.41 377.986ZM94.5871 369.109C93.8208 370.534 94.9155 372.288 97.105 373.383C98.8566 374.479 101.046 374.151 101.812 372.616C102.579 371.192 101.484 369.438 99.2946 368.342C97.105 367.685 95.3534 368.013 94.5871 369.109ZM130.057 408.124C128.306 409.549 128.962 412.837 131.48 414.919C133.998 417.44 137.173 417.769 138.596 416.015C140.02 414.59 139.363 411.303 137.173 409.22C134.765 406.7 131.48 406.371 130.057 408.124ZM117.577 392.014C115.825 393.11 115.825 395.96 117.577 398.48C119.329 401.001 122.284 402.097 123.708 401.001C125.459 399.576 125.459 396.727 123.708 394.206C122.175 391.685 119.329 390.59 117.577 392.014Z" fill="white"/>
</svg>
