<svg width="800" height="800" viewBox="0 0 800 800" fill="none" xmlns="http://www.w3.org/2000/svg">
<path d="M713.432 334.94L712.546 332.662L624.306 102.553C622.534 98.1226 619.369 94.1988 615.191 91.6674C612.153 89.6422 608.735 88.503 605.063 88.1233C601.392 87.7436 597.847 88.2499 594.429 89.5156C591.011 90.7814 587.972 92.8065 585.44 95.5911C583.035 98.2491 581.263 101.413 580.25 104.957L520.748 287.222H279.577L219.949 104.957C218.936 101.413 217.164 98.2491 214.758 95.5911C212.226 92.9331 209.188 90.7814 205.77 89.5156C202.478 88.2499 198.807 87.7436 195.135 88.1233C191.591 88.503 188.046 89.6422 185.007 91.6674C180.83 94.1988 177.665 98.1226 175.892 102.553L87.7794 332.662L86.7666 334.94C74.1067 368.102 72.5875 404.555 82.3356 438.73C92.2103 472.778 112.846 502.902 141.204 524.293L141.457 524.546L142.217 525.052L276.412 625.677L343.003 675.927L383.515 706.557C388.199 708.962 394.022 712 399.973 712C405.923 712 411.746 708.962 416.431 706.557L456.942 675.927L523.533 625.677L658.615 524.546L658.994 524.166C687.353 502.775 707.988 472.778 716.724 438.73C727.611 404.555 726.092 368.102 713.432 334.94Z" fill="white"/>
</svg>
