<svg width="600" height="312" viewBox="0 0 600 312" fill="none" xmlns="http://www.w3.org/2000/svg">
<path fill-rule="evenodd" clip-rule="evenodd" d="M383.896 0.965626C377.299 3.59722 374.382 11.8775 377.48 19.1787C378.142 20.7366 382.009 26.5122 386.074 32.0117C392.969 41.3417 393.702 42.7312 397.02 52.7394C401.207 65.3734 407.595 78.9319 411.179 82.7955C412.58 84.3053 413.726 85.7629 413.726 86.0332C413.726 86.3043 412.374 91.929 410.721 98.532C407.82 110.129 407.732 110.925 408.135 121.826C408.698 137.072 411.992 147.365 418.604 154.536C423.079 159.391 429.105 160.652 433.039 157.558C435.599 155.544 436.51 152.806 437.794 143.269C438.332 139.28 438.915 136.014 439.091 136.014C439.268 136.014 441.145 139.465 443.263 143.682C446.527 150.18 448.339 152.553 455.138 159.228C463.882 167.814 474.628 177.47 475.436 177.47C475.715 177.47 473.892 175.385 471.384 172.837C462.426 163.733 449.543 142.927 443.143 127.223C441.183 122.413 439.4 118.299 439.182 118.08C438.371 117.268 432.615 125.292 431.045 129.424C430.151 131.779 428.972 137.441 428.425 142.007C427.788 147.343 427.043 150.46 426.341 150.73C423.323 151.887 417.917 142.219 415.682 131.669C414.782 127.423 414.514 122.721 414.769 115.701C415.083 107.059 415.529 104.543 418.159 96.553C419.825 91.4937 421.188 86.5414 421.188 85.549C421.188 84.5557 419.745 82.1662 417.98 80.2385C413.117 74.9256 409.922 68.5696 405.531 55.4714C400.545 40.5979 399.32 38.1852 391.237 27.3032C384.239 17.8828 382.576 14.476 383.39 11.2317C384.053 8.59096 387.234 7.77594 391.952 9.03785C397.68 10.57 407.234 15.4179 411.993 19.2077C416.305 22.6402 416.489 22.6983 425.203 23.3922C438.051 24.4154 446.527 27.7301 460.63 37.2442C475.195 47.0725 487.268 59.2065 497.033 73.8312C502.698 82.318 502.768 82.4572 516.545 112.799C527.923 137.857 529.59 140.58 535.141 143.165C537.449 144.239 539.771 145.122 540.302 145.126C540.833 145.131 544.693 146.442 548.882 148.041C554.457 150.168 559.917 153.287 569.266 159.687C576.289 164.494 582.036 168.708 582.036 169.052C582.036 169.395 577.465 170.094 571.879 170.605C561.691 171.537 549.117 174.746 547.393 176.854C546.29 178.202 548.816 183.601 552.644 188.072C556.865 193.003 565.586 199.111 575.403 204.01C584.179 208.389 594.702 215.144 597.41 218.135C598.216 219.026 599.2 219.755 599.597 219.755C601.37 219.755 597.224 214.429 588.54 205.553C581.475 198.33 577.41 194.929 572.209 191.886C565.827 188.152 559.647 183.18 559.651 181.783C559.653 181.105 573.908 177.786 579.963 177.055C583.542 176.622 591.818 174.427 592.694 173.678C593.529 172.965 584.261 163.086 578.177 158.204C567.02 149.253 559.273 144.4 548.12 139.378L537.678 134.676L530.832 121.043C527.066 113.545 521.536 101.627 518.542 94.5589C511.405 77.7089 505.17 67.7405 492.954 53.6573C484.212 43.5778 463.394 27.4449 451.072 21.2009C445.68 18.4682 435.621 15.9294 427.505 15.2529C421.382 14.7421 420.448 14.4179 416.801 11.5351C406.425 3.33274 390.656 -1.73147 383.896 0.965626ZM421.188 38.8195C421.188 39.1719 422.254 40.7571 423.558 42.3432C424.862 43.9293 426.749 46.8403 427.752 48.8119C429.239 51.7346 429.793 52.2171 430.749 51.4236C433.847 48.8526 432.563 41.1029 428.696 39.0334C426.839 38.0393 421.188 37.8785 421.188 38.8195ZM10.7735 191.916C5.42902 193.392 3.44578 194.63 1.61677 197.629C0.0779363 200.153 0.00580393 202.146 0.0033166 242.374L0 284.477L9.74205 284.245L19.4841 284.011L19.8987 245.654L20.3132 207.296L36.4502 243.028C53.7156 281.259 54.4726 282.528 61.1245 284.376C65.1358 285.49 72.4933 285.491 76.5012 284.377C78.2199 283.9 80.8449 282.29 82.3348 280.801C85.1041 278.031 85.9116 276.352 106.6 230.307L117.319 206.451L117.535 245.438L117.75 284.425H127.713H137.676L137.447 242.2C137.224 201.121 137.171 199.912 135.516 197.636C132.664 193.713 126.71 191.304 118.848 190.891C112.64 190.565 111.502 190.751 107.402 192.756C104.898 193.982 102.091 196.05 101.164 197.352C100.236 198.654 95.2432 209.171 90.0688 220.723C84.8935 232.275 77.9306 247.799 74.5959 255.222C71.2604 262.646 68.235 268.423 67.8718 268.059C67.5087 267.696 60.9164 252.855 53.2223 235.078C45.5281 217.302 38.6465 201.639 37.931 200.271C36.1393 196.847 32.5136 193.559 28.8381 192.023C25.1635 190.489 16.1361 190.435 10.7735 191.916ZM284.385 193.304C278.861 194.383 270.574 198.755 268.336 201.771C265.284 205.884 264.486 209.368 264.486 218.581C264.486 228.239 265.144 230.623 268.89 234.545C275.549 241.519 284.311 243.77 304.865 243.786C321.637 243.8 327.18 244.618 330.339 247.546C332.328 249.39 332.473 250.032 332.473 257.012C332.473 264.017 332.326 264.663 330.193 267.024C326.905 270.662 322.313 271.149 291.225 271.155L264.486 271.159V277.86V284.559L297.029 284.236C327.873 283.93 329.859 283.818 335.092 282.086C342.137 279.756 348.134 275.634 350.493 271.501C352.16 268.582 352.346 267.119 352.359 256.86L352.372 245.462L349.319 242.083C347.64 240.225 344.785 237.949 342.974 237.024C335.117 233.016 333.67 232.792 312.16 232.238C285.047 231.539 284.385 231.2 284.385 218.003C284.385 205.35 283.43 205.66 322.497 205.66H353.201V199.027V192.394L320.659 192.485C302.761 192.535 286.437 192.904 284.385 193.304ZM385.859 193.597C376.672 195.652 370.309 199.829 367.22 205.834C365.751 208.688 365.638 211.003 365.638 237.988C365.638 269.651 365.766 270.652 370.449 275.589C373.48 278.785 379.402 281.688 386.151 283.285C390.791 284.383 395.323 284.541 412.505 284.201L433.256 283.789L441 290.74L448.744 297.691H459.839C465.942 297.691 470.935 297.547 470.935 297.369C470.935 297.193 466.924 293.391 462.022 288.922C452.649 280.375 451.839 279.451 453.72 279.451C454.36 279.451 456.44 278.118 458.343 276.489C464.114 271.549 464.426 269.398 464.136 236.605L463.887 208.562L461.578 204.633C458.787 199.885 454.891 197.091 447.72 194.696C442.72 193.026 440.471 192.88 416.628 192.679C397.253 192.517 389.678 192.743 385.859 193.597ZM476.739 228.571C476.739 254.795 477.019 265.688 477.758 268.161C479.795 274.977 487.447 280.261 499.113 282.911C501.172 283.379 516.754 283.948 533.74 284.177L564.624 284.592V277.947V271.301L534.569 271.018C507.938 270.766 504.213 270.569 501.87 269.293C496.45 266.341 496.637 267.81 496.637 228.275V192.394H486.688H476.739V228.571ZM437.29 206.572C439.079 207.068 441.597 208.53 442.887 209.819L445.232 212.165V238.333V264.5L442.952 267.048L440.672 269.596L433.259 262.916L425.845 256.235L414.604 256.275L403.362 256.315L411.239 263.781L419.115 271.247L407.093 270.98C393.95 270.688 391.038 269.854 388.238 265.582C386.926 263.579 386.78 260.796 386.78 237.843V212.33L388.922 210.188C392.846 206.265 396.018 205.735 415.799 205.7C426.511 205.682 435.381 206.041 437.29 206.572ZM228.835 245.457V271.159H204.749C179.175 271.159 177.001 270.86 174.967 267.06C174.442 266.079 174.113 256.83 174.113 243.024V220.584H164.128H154.144L154.386 244.984C154.618 268.244 154.71 269.492 156.364 271.722C159.231 275.587 164.346 278.999 170.434 281.108C175.944 283.017 177.295 283.114 202.51 283.419L228.835 283.736V288.042C228.835 292.866 227.371 295.603 223.983 297.121C222.459 297.805 211.508 298.232 188.208 298.52L154.629 298.935L154.386 305.408L154.143 311.881L190.453 311.601C225.325 311.332 226.978 311.248 232.231 309.486C239.163 307.162 244.739 302.929 246.987 298.288C248.683 294.783 248.733 293.616 248.733 257.217V219.755H238.784H228.835V245.457ZM570.428 271.989C570.428 272.445 571.174 272.818 572.086 272.818C573.587 272.818 573.745 273.371 573.745 278.621C573.745 283.872 573.902 284.425 575.403 284.425C576.903 284.425 577.061 283.872 577.061 278.621C577.061 273.371 577.218 272.818 578.719 272.818C579.631 272.818 580.377 272.445 580.377 271.989C580.377 271.528 578.166 271.159 575.403 271.159C572.639 271.159 570.428 271.528 570.428 271.989ZM583.694 277.792C583.694 283.039 583.946 284.425 584.898 284.425C585.796 284.425 586.165 283.108 586.349 279.243L586.596 274.061L588.523 279.291C589.602 282.217 590.868 284.383 591.398 284.206C591.919 284.032 593.18 281.866 594.2 279.39L596.053 274.89L596.092 279.658C596.121 283.326 596.417 284.425 597.374 284.425C598.376 284.425 598.618 283.135 598.618 277.792C598.618 271.37 598.556 271.159 596.656 271.159C595.056 271.159 594.384 271.962 593.012 275.512L591.329 279.865L590.335 277.378C589.788 276.01 589.012 274.051 588.61 273.025C588.121 271.776 587.189 271.159 585.787 271.159C583.723 271.159 583.694 271.252 583.694 277.792Z" fill="white"/>
</svg>
