<svg width="600" height="368" viewBox="0 0 600 368" fill="none" xmlns="http://www.w3.org/2000/svg">
<path d="M296.531 367.331C294.562 367.331 292.594 366.768 290.813 365.831L272.812 355.148C270.094 353.649 271.406 353.087 272.344 352.806C275.906 351.587 276.656 351.306 280.5 349.057C280.875 348.87 281.438 348.963 281.813 349.151L295.687 357.397C296.156 357.679 296.906 357.679 297.375 357.397L351.562 326.098C352.031 325.817 352.406 325.255 352.406 324.599V262.094C352.406 261.438 352.125 260.876 351.562 260.595L297.375 229.389C296.906 229.108 296.25 229.108 295.687 229.389L241.5 260.595C240.938 260.876 240.656 261.532 240.656 262.094V324.599C240.656 325.161 241.031 325.723 241.5 326.004L256.312 334.532C264.375 338.562 269.344 333.782 269.344 329.097V267.342C269.344 266.498 270 265.749 270.938 265.749H277.781C278.625 265.749 279.375 266.405 279.375 267.342V329.097C279.375 339.874 273.562 345.965 263.344 345.965C260.25 345.965 257.719 345.965 250.875 342.591L236.625 334.438C233.156 332.377 230.906 328.628 230.906 324.599V262.094C230.906 258.065 233.062 254.222 236.625 252.254L290.813 220.955C294.281 218.987 298.781 218.987 302.156 220.955L356.344 252.254C359.813 254.316 362.063 258.065 362.063 262.094V324.599C362.063 328.628 359.906 332.47 356.344 334.438L302.156 365.738C300.562 366.768 298.594 367.331 296.531 367.331ZM340.312 305.669C340.312 293.956 332.437 290.863 315.75 288.614C298.875 286.365 297.188 285.24 297.188 281.305C297.188 278.025 298.594 273.714 311.062 273.714C322.219 273.714 326.344 276.151 328.031 283.647C328.219 284.397 328.781 284.866 329.531 284.866H336.562C337.031 284.866 337.406 284.678 337.688 284.397C337.969 284.022 338.156 283.647 338.063 283.179C336.938 270.247 328.406 264.249 311.062 264.249C295.594 264.249 286.406 270.809 286.406 281.679C286.406 293.581 295.594 296.767 310.406 298.266C328.125 300.047 329.531 302.577 329.531 306.044C329.531 312.135 324.656 314.665 313.219 314.665C298.875 314.665 295.687 311.105 294.656 303.983C294.562 303.233 293.906 302.671 293.063 302.671H286.031C285.188 302.671 284.437 303.327 284.437 304.264C284.437 313.354 289.406 324.224 313.125 324.224C330.469 324.224 340.312 317.477 340.312 305.669ZM391.406 258.72C391.406 264.437 386.719 269.122 381 269.122C375.281 269.122 370.594 264.437 370.594 258.72C370.594 252.817 375.469 248.319 381 248.319C386.625 248.225 391.406 252.817 391.406 258.72ZM389.719 258.72C389.719 253.848 385.781 250.005 380.906 250.005C376.125 250.005 372.188 253.848 372.188 258.72C372.188 263.593 376.125 267.529 380.906 267.529C385.781 267.436 389.719 263.5 389.719 258.72ZM385.5 264.53H383.063C382.969 263.968 382.594 260.97 382.594 260.876C382.406 260.22 382.219 259.845 381.375 259.845H379.313V264.53H377.063V252.817H381.094C382.5 252.817 385.219 252.817 385.219 255.909C385.219 258.065 383.812 258.533 382.969 258.814C384.563 258.908 384.656 259.939 384.938 261.438C385.031 262.375 385.219 263.968 385.5 264.53ZM382.875 256.284C382.875 254.691 381.75 254.691 381.188 254.691H379.313V257.971H381.094C382.594 257.971 382.875 256.94 382.875 256.284ZM128.719 122.747C128.719 120.217 127.406 117.968 125.25 116.749L67.7813 83.6697C66.8438 83.1074 65.7188 82.8263 64.5938 82.7326H64.0313C62.9063 82.7326 61.875 83.1074 60.8438 83.6697L3.46875 116.749C1.3125 117.968 0 120.31 0 122.747L0.09375 211.772C0.09375 212.99 0.75 214.114 1.78125 214.77C2.8125 215.426 4.125 215.426 5.25 214.77L39.375 195.185C41.5312 193.873 42.8438 191.624 42.8438 189.187V147.58C42.8438 145.144 44.1563 142.801 46.3125 141.583L60.8438 133.242C61.9688 132.586 63.0937 132.305 64.3125 132.305C65.5312 132.305 66.75 132.586 67.7813 133.242L82.3125 141.583C84.4688 142.801 85.7812 145.144 85.7812 147.58V189.187C85.7812 191.624 87.0937 193.967 89.25 195.185L123.375 214.77C124.406 215.426 125.813 215.426 126.844 214.77C127.875 214.208 128.531 212.99 128.531 211.772L128.719 122.747ZM442.969 25.5693V190.874C442.969 193.311 441.656 195.653 439.5 196.872L382.031 230.045C379.875 231.263 377.25 231.263 375.094 230.045L317.625 196.872C315.469 195.653 314.156 193.311 314.156 190.874V124.527C314.156 122.091 315.469 119.748 317.625 118.53L375.094 85.3565C377.25 84.1382 379.875 84.1382 382.031 85.3565L396.375 93.603C397.969 94.5401 400.031 93.3218 400.031 91.5413V3.45367C400.031 0.829783 402.844 -0.857002 405.188 0.454942L439.406 19.5718C441.563 20.6964 442.969 23.0391 442.969 25.5693ZM399.844 146.362C399.844 145.706 399.469 145.144 399 144.862L379.313 133.43C378.75 133.149 378.094 133.149 377.531 133.43L357.844 144.862C357.281 145.144 357 145.706 357 146.362V169.133C357 169.789 357.375 170.352 357.844 170.633L377.531 181.972C378.094 182.253 378.75 182.253 379.219 181.972L398.906 170.633C399.469 170.352 399.75 169.789 399.75 169.133V146.362H399.844ZM596.531 145.706C598.687 144.488 600 142.145 600 139.708V123.684C600 121.247 598.687 118.905 596.531 117.687L539.438 84.5131C537.281 83.2948 534.656 83.2948 532.5 84.5131L475.031 117.687C472.875 118.905 471.562 121.247 471.562 123.684V190.031C471.562 192.561 472.875 194.81 475.031 196.028L532.125 228.546C534.187 229.764 536.813 229.764 538.969 228.546L573.469 209.335C575.813 208.023 575.813 204.65 573.469 203.338L515.625 170.164C514.5 169.508 513.844 168.384 513.844 167.166V146.362C513.844 145.144 514.5 144.019 515.625 143.363L533.625 132.961C534.656 132.305 536.063 132.305 537.094 132.961L555.094 143.363C556.125 144.019 556.875 145.144 556.875 146.362V162.667C556.875 165.291 559.781 166.978 562.125 165.666L596.531 145.706ZM524.062 148.986C523.687 149.267 523.406 149.642 523.406 150.11V162.855C523.406 163.323 523.687 163.792 524.062 163.979L535.125 170.352C535.5 170.633 536.063 170.633 536.438 170.352L547.5 163.979C547.875 163.698 548.156 163.323 548.156 162.855V150.11C548.156 149.642 547.875 149.173 547.5 148.986L536.438 142.613C536.063 142.332 535.5 142.332 535.125 142.613L524.062 148.986ZM285.75 189.75V123.778C285.75 121.341 284.25 118.998 282.094 117.78L224.813 84.7942C222.844 83.6697 220.125 83.4822 217.875 84.7942L160.594 117.78C158.438 118.998 156.937 121.247 156.937 123.778V189.75C156.937 192.374 158.719 194.623 160.687 195.747L218.063 228.733C220.313 230.045 222.937 229.951 225 228.733L282.188 195.747C283.875 194.81 285.094 193.217 285.563 191.343C285.656 190.874 285.75 190.312 285.75 189.75ZM216.094 72.7056L215.344 73.1741H216.375L216.094 72.7056ZM287.531 194.716L287.156 194.06V194.904L287.531 194.716Z" fill="white"/>
</svg>
