<svg width="600" height="316" viewBox="0 0 600 316" fill="none" xmlns="http://www.w3.org/2000/svg">
<path d="M300 15.7572C460.687 15.7572 584.25 83.4757 584.25 157.853C584.25 232.231 460.594 299.95 300 299.95C139.313 299.95 15.75 232.231 15.75 157.853C15.75 83.4757 139.406 15.7572 300 15.7572ZM300 0C134.344 0 0 70.626 0 157.853C0 245.081 134.344 315.707 300 315.707C465.656 315.707 600 245.081 600 157.853C600 70.626 465.656 0 300 0ZM204.562 145.191C197.156 183.177 171 179.238 138.844 179.238L151.688 113.02C187.313 113.02 211.5 109.175 204.562 145.191ZM91.3125 246.3H125.719L133.875 204.281C172.406 204.281 196.312 207.095 218.438 186.366C242.906 163.856 249.281 123.807 231.844 103.735C222.75 93.2301 208.125 88.0715 188.25 88.0715H121.969L91.3125 246.3ZM265.406 45.9585H299.625L291.469 87.9777C321 87.9777 348.375 85.8205 361.594 98.0136C375.469 110.769 368.812 127.089 353.812 204.093H319.125C333.562 129.622 336.281 123.431 331.031 117.804C325.969 112.364 314.438 113.489 286.594 113.489L268.969 204.093H234.75L265.406 45.9585ZM473.438 145.191C465.938 183.74 439.031 179.238 407.719 179.238L420.563 113.02C456.375 113.02 480.375 109.175 473.438 145.191ZM360.188 246.3H394.688L402.844 204.281C443.344 204.281 465.75 206.626 487.406 186.366C511.875 163.856 518.25 123.807 500.813 103.735C491.719 93.2301 477.094 88.0715 457.219 88.0715H390.938L360.188 246.3Z" fill="white"/>
</svg>
