<svg width="509" height="529" viewBox="0 0 509 529" fill="none" xmlns="http://www.w3.org/2000/svg">
<path fill-rule="evenodd" clip-rule="evenodd" d="M358.848 0.543919C345.538 1.2829 342.145 1.8484 322.616 6.58343L306.614 10.4631L293.769 8.2912C282.252 6.34386 279.259 6.12457 264.815 6.16888C250.988 6.21094 247.609 6.45876 240.965 7.91645C226.071 11.184 216.233 14.7986 205.548 20.9305C202.828 22.491 200.158 23.7677 199.615 23.7677C199.071 23.7677 193.976 22.244 188.292 20.3822C159.052 10.804 133.842 6.80873 106.72 7.45609C88.6864 7.88641 81.4478 8.92053 68.8818 12.8633C36.6169 22.9867 16.3724 44.0386 6.33451 77.9048C1.62462 93.7951 -1.01505 120.365 0.366598 137.973C2.53423 165.604 15.773 226.91 28.1374 266.575C44.3943 318.723 59.973 351.245 77.4504 369.519C89.7998 382.43 102.369 386.981 115.171 383.177C124.46 380.417 130.823 375.076 145.172 357.993C156.898 344.032 179.428 318.909 180.221 318.909C180.53 318.909 183.288 319.914 186.35 321.143C193.552 324.034 199.522 325.573 205.81 326.162C208.592 326.422 210.868 326.917 210.868 327.261C210.868 328.108 201.038 339.48 198.382 341.706C194.451 345 189.858 346.759 178.418 349.349C163.891 352.639 161.771 353.252 157.67 355.351C144.761 361.959 144.197 373.902 156.399 382.29C161.246 385.622 166.843 387.588 177.9 389.843C190.157 392.344 196.056 392.766 204.535 391.751C218.68 390.059 230.813 385.366 240.839 377.709L246.083 373.705L246.107 391.93C246.152 426.728 248.146 461.047 251.02 476.462C254.605 495.7 265.636 512.832 280.044 521.544C288.722 526.789 302.075 529.822 312.019 528.804C325.068 527.468 346.84 521.384 355.476 516.659C372.076 507.577 382.257 493.207 386.903 472.305C388.378 465.665 396.632 409.249 398.138 395.511C399.88 379.618 401.234 368.172 401.391 368.019C401.482 367.93 405.097 368.326 409.424 368.901C420.728 370.401 428.327 370.22 442.766 368.108C467.261 364.524 478.415 360.074 494.991 347.268C506.922 338.051 511.417 329.148 507.763 321.967C504.005 314.579 498.251 314.128 468.104 318.86C452.641 321.288 438.802 320.608 432.01 317.088L429.741 315.912L436.074 305.348C447.53 286.239 466.343 249.241 475.301 228.199C483.334 209.331 493.961 176.393 498.128 157.445C503.653 132.322 506.307 113.5 506.28 99.6184C506.232 73.8081 502.528 62.4658 489.484 48.1751C470.306 27.1645 449.255 14.1362 421.658 6.19742C401.923 0.520638 385.64 -0.944555 358.848 0.543919ZM399.683 17.4083C427.123 21.8211 449.573 32.4327 469.64 50.4762C486.433 65.5757 490.496 74.5591 490.508 96.6144C490.515 111.495 488.754 127.234 485.07 145.211C478.687 176.351 461.997 222.407 443.813 259.055C438.743 269.274 421.383 300.141 420.716 300.123C420.48 300.116 419.813 299.81 419.232 299.442C418.366 298.892 418.804 297.243 421.672 290.253C428.142 274.485 430.107 262.653 429.428 243.542C429.191 236.874 428.303 226.031 427.452 219.447C425.517 204.451 425.493 192.288 427.373 178.828C429.974 160.2 431.345 144.535 430.885 138.67C430.064 128.199 424.711 114.016 415.296 97.3654C396.639 64.3718 370.779 38.7095 340.959 23.5973L333.373 19.7529L338.243 18.721C350.228 16.1827 387.154 15.3934 399.683 17.4083ZM286.918 23.0926C336.566 29.4535 380.565 62.7925 405.751 113.136C408.128 117.886 410.746 123.5 411.569 125.61L413.066 129.448L399.443 129.887C383.37 130.405 377.598 131.515 369.079 135.725C343.851 148.189 340.628 177.512 359.489 222.975C362.956 231.331 373.541 252.551 380.56 265.213C383.536 270.583 387.882 278.833 390.218 283.547C394.727 292.654 400.548 301.878 406.062 308.664C407.911 310.939 409.424 312.996 409.424 313.235C409.424 313.475 407.654 314.469 405.49 315.446C396.846 319.345 391.214 325.616 388.889 333.929C388.254 336.201 387.393 342.96 386.975 348.949C384.85 379.421 375.222 454.286 371.522 469.108C368.951 479.408 364.022 488.966 358.27 494.807C348.722 504.504 330.076 511.429 310.813 512.433C296.935 513.156 289.5 510.551 280.963 501.971C274.609 495.586 269.483 486.095 267.067 476.243C263.965 463.591 262.384 435.873 261.863 384.997C261.34 333.883 261.529 336.064 256.943 328.221C254.621 324.25 248.608 318.807 244.298 316.776C240.382 314.932 232.366 313.493 229.715 314.16C228.223 314.535 227.945 314.392 228.311 313.436C228.562 312.78 229.14 310.855 229.597 309.157C230.053 307.459 234.647 295.55 239.806 282.692C252.383 251.35 253.586 246.483 254.759 222.208C255.813 200.394 250.853 167.253 244.548 153.974C239.709 143.784 228.965 135.477 218.035 133.476C211.999 132.371 199.734 132.495 192.822 133.731C185.615 135.02 172.522 139.489 164.895 143.263C161.655 144.867 158.872 146.18 158.711 146.18C157.008 146.18 160.869 122.011 165.124 106.029C178.565 55.5484 210.343 25.3336 253.201 22.2838C263.201 21.5726 277.784 21.9225 286.918 23.0926ZM140.811 25.2442C154.556 27.3169 182.284 34.0286 184.094 35.7213C184.41 36.0172 182.418 39.1091 179.668 42.5922C163.922 62.5394 154.747 81.6883 148.271 108.119C142.649 131.062 141.13 151.071 142.194 188.153C142.765 208.054 142.672 211.744 141.252 225.702C139.401 243.896 139.287 252.948 140.791 262.209C143.383 278.167 149.997 291.408 161.335 303.335C166.394 308.656 166.78 309.278 165.761 310.47C165.147 311.187 158.266 319.041 150.47 327.921C142.674 336.802 133.23 347.617 129.484 351.955C121.384 361.333 117.628 364.843 113.353 367.029C95.513 376.152 72.5674 346.698 51.7198 287.916C40.0777 255.09 28.6994 212.296 21.2509 173.327C15.8577 145.111 14.7158 130.831 16.3582 112.151C19.0211 81.8656 26.1054 63.0951 40.7356 47.5653C51.3744 36.2718 67.7601 27.8839 84.2418 25.2945C101.142 22.639 123.399 22.6195 140.811 25.2442ZM415.414 146.743C415.409 148.375 412.903 169.01 411.24 181.101C409.825 191.391 410.11 207.636 411.984 223.533C414.181 242.172 414.784 253.026 413.978 259.462C413.318 264.741 409.308 280.457 408.13 282.38C407.914 282.735 404.116 275.976 399.691 267.36C395.268 258.744 389.393 247.471 386.639 242.308C374.933 220.367 369.667 207.817 365.84 192.742C360.569 171.975 362.907 158.422 372.925 151.675C379.572 147.199 387.338 145.699 404.741 145.532C414.45 145.438 415.418 145.549 415.414 146.743ZM217.808 149.681C222.693 151.231 228.924 157.052 231.084 162.085C234.804 170.751 238.388 193.782 239.069 213.394C239.83 235.312 237.689 246.14 228.079 268.968C223.641 279.508 212.366 309.333 212.366 310.53C212.366 310.714 209.922 310.669 206.934 310.428C193.03 309.31 177.902 300.449 168.506 287.921C157.316 273.002 153.514 255.654 156.615 233.671C157.751 225.62 158.003 218.791 158.048 194.737L158.104 165.565L165.567 161.268C185.288 149.912 204.85 145.573 217.808 149.681ZM384.938 153.653C379.116 155.055 376.214 156.594 374.961 158.94C372.903 162.794 380.378 169.04 386.931 168.941C391.291 168.874 394.141 167.425 397.722 163.451C401.433 159.334 401.334 156.166 397.435 154.337C393.313 152.403 390.718 152.261 384.938 153.653ZM203.353 157.886C200.797 158.813 198.366 159.913 197.95 160.33C195.57 162.715 200.87 171.154 206.581 174.074C213.014 177.363 222.778 174.327 225.732 168.119C226.803 165.867 226.81 165.394 225.801 163.59C224.231 160.786 219.526 158.384 213.289 157.202C208.307 156.258 207.729 156.298 203.353 157.886ZM423.556 330.497C432.563 335.044 436.482 335.743 452.881 335.731C464.623 335.722 469.273 335.396 476.566 334.073C487.793 332.037 487.935 332.034 486.274 333.874C481.567 339.087 465.616 347.342 455.088 350.013C447.263 351.999 430.223 354.208 422.759 354.204C417.15 354.201 404.981 352.181 403.587 351.022C402.881 350.434 402.732 349.02 403.058 346.009C404.267 334.847 405.981 332.052 413.218 329.443C415.458 328.636 417.552 327.963 417.872 327.948C418.191 327.933 420.749 329.081 423.556 330.497ZM237.692 331.234C242.576 333.791 246.184 339.868 246.271 345.685C246.332 349.7 244.295 352.916 237.253 359.92C226.068 371.046 213.404 375.946 195.761 375.972C186.316 375.986 178.446 374.776 171.861 372.295C163.893 369.295 163.979 368.998 173.511 366.702C178.192 365.575 184.887 363.949 188.39 363.09C202.278 359.685 208.928 355.025 221.143 340.139C224.622 335.899 228.192 331.922 229.075 331.302C231.097 329.884 235.053 329.852 237.692 331.234Z" fill="white"/>
</svg>
