<svg width="600" height="224" viewBox="0 0 600 224" fill="none" xmlns="http://www.w3.org/2000/svg">
<path d="M522.332 194.806V223.839H571.866C582.032 223.839 599.419 216.013 600 193.924V182.682C600 163.915 585.539 152.767 571.866 152.767H547.146V139.273H596.08V109.94H549.097C536.98 109.94 520.775 120.599 520.775 140.343V150.515C520.775 170.258 536.793 180.43 549.097 180.43C583.195 180.618 540.882 180.43 572.448 180.43V194.599L522.332 194.806ZM256.73 187.674C256.73 187.674 283.307 185.234 283.307 148.957C283.307 112.586 251.16 109.17 251.16 109.17H193.223V223.82H222.332V196.157L247.54 223.82H290.528L256.73 187.674ZM245.495 164.215H222.351V138.016H245.702C245.702 138.016 252.248 140.549 252.248 151.021C252.248 161.494 245.514 164.215 245.514 164.215H245.495ZM355.086 109.977H325.583C304.483 109.977 297.355 130.302 297.355 139.892V223.858H326.952V203.814H354.692V223.858H383.314V139.892C383.314 115.457 362.401 109.977 355.086 109.977ZM354.692 171.253H326.746V143.496C326.746 143.496 326.746 137.134 336.03 137.134H346.196C354.298 137.134 354.505 143.496 354.505 143.496V171.253H354.692ZM396.799 109.977H427.577V223.858H396.799V109.977ZM470.753 194.431V109.977H440.181V223.858H512.185V194.431H470.753ZM10.6533 223.839H130.316C130.316 223.839 107.452 113.093 183.264 68.1258C199.769 59.6241 252.323 27.757 338.487 95.301C341.132 92.9551 343.757 91.0032 343.757 91.0032C343.757 91.0032 264.927 7.52574 177.205 16.8156C133.054 21.0195 78.8309 63.6403 46.9834 119.943C15.136 176.245 10.6346 223.839 10.6346 223.839H10.6533ZM10.6533 223.839H130.316C130.316 223.839 107.452 113.093 183.264 68.1258C199.769 59.6241 252.323 27.757 338.487 95.301C341.132 92.9551 343.757 91.0032 343.757 91.0032C343.757 91.0032 264.927 7.52574 177.205 16.8156C133.054 21.0195 78.8309 63.6403 46.9834 119.943C15.136 176.245 10.6346 223.839 10.6346 223.839H10.6533ZM10.6533 223.839H130.316C130.316 223.839 107.452 113.093 183.264 68.1258C199.769 59.6241 252.323 27.757 338.487 95.301C341.132 92.9551 343.757 91.0032 343.757 91.0032C343.757 91.0032 264.927 7.52574 177.205 16.8156C132.96 21.0195 78.6433 63.6403 46.7959 119.943C15.0422 176.245 10.6533 223.839 10.6533 223.839ZM260.05 25.8991L260.725 15.0515C259.356 14.2632 255.549 12.3114 245.983 9.47755L245.402 20.0436C250.391 21.8077 255.267 23.7408 260.05 25.8991ZM245.683 59.9244L245.102 70.0963C250.091 70.284 255.061 70.8846 260.05 72.0481L260.725 62.0826C255.549 60.9003 250.56 60.3185 245.683 59.9244ZM189.603 9.77783H191.066L188.046 0C183.357 0 178.575 0.300278 173.492 0.882068L176.418 10.4535C180.807 9.96551 185.214 9.77783 189.603 9.77783ZM196.843 69.0078L200.369 80.0618C204.758 77.8097 209.165 75.8579 213.554 74.4879L210.234 63.828C205.058 65.3857 200.669 67.1499 196.843 69.0078ZM128.065 26.6873L121.219 15.5394C117.412 17.6977 113.51 19.931 109.403 22.4834L116.436 33.7251C120.338 31.1915 124.145 28.7329 128.065 26.6873ZM159.125 99.0169L166.458 110.653C168.99 106.637 172.029 102.939 175.349 99.2234L168.503 88.282C165.089 91.6976 161.863 95.301 159.125 99.0169ZM137.162 150.834L149.465 161.193C150.047 154.831 151.135 148.582 152.598 142.332L141.757 133.136C139.712 139.104 138.437 145.053 137.162 150.834ZM70.8221 74.4879L59.9812 64.5224C56.08 68.5386 52.2726 72.5361 48.8403 76.5523L60.4689 87.2122C63.6949 82.8207 67.1085 78.5041 70.8221 74.5067V74.4879ZM25.0016 146.33L7.61488 139.592C4.68897 146.536 1.55674 154.55 0 158.941L17.3867 165.679C19.4311 160.199 22.5633 152.279 25.0016 146.33ZM134.911 191.69C135.211 200.192 135.98 207.136 136.674 212.016L154.942 218.866C153.573 212.616 152.204 205.578 151.229 197.94L134.911 191.69Z" fill="white"/>
</svg>
