<svg width="600" height="525" viewBox="0 0 600 525" fill="none" xmlns="http://www.w3.org/2000/svg">
<path d="M490.078 170.098C483.75 167.989 477.422 165.997 471.094 164.123C472.148 159.788 473.086 155.453 474.023 151.118C488.437 81.2926 478.945 25.1742 446.953 6.66332C416.133 -11.0274 365.859 7.36627 315 51.6518C309.961 55.9866 305.039 60.5557 300.352 65.1249C297.187 62.0788 293.906 59.0327 290.625 56.1038C237.305 8.77216 183.867 -11.1446 151.875 7.48343C121.172 25.2914 112.031 78.1294 124.922 144.206C126.211 150.767 127.617 157.211 129.258 163.771C121.758 165.88 114.375 168.223 107.461 170.684C44.8828 192.358 0 226.568 0 261.949C0 298.502 47.8125 335.173 112.852 357.433C118.125 359.19 123.398 360.947 128.789 362.47C127.031 369.5 125.508 376.412 124.102 383.559C111.797 448.581 121.406 500.13 152.109 517.821C183.75 536.098 236.953 517.353 288.75 472.013C292.852 468.381 296.953 464.632 301.055 460.648C306.211 465.686 311.602 470.49 316.992 475.176C367.148 518.29 416.719 535.746 447.305 518.055C478.945 499.779 489.258 444.363 475.898 376.881C474.844 371.726 473.672 366.454 472.383 361.065C476.133 360.01 479.766 358.839 483.398 357.667C551.016 335.29 600 299.088 600 261.949C600 226.451 553.828 192.006 490.078 170.098ZM331.523 70.6313C375.117 32.6723 415.781 17.7933 434.297 28.4546C454.102 39.8189 461.719 85.7446 449.297 146.081C448.477 150.064 447.656 153.93 446.602 157.796C420.586 151.939 394.219 147.721 367.734 145.378C352.5 123.586 335.859 102.732 317.813 83.1671C322.383 78.8323 326.836 74.7318 331.523 70.6313ZM195.937 322.754C201.914 332.947 208.008 343.139 214.453 353.098C196.172 351.106 178.008 348.177 160.078 344.311C165.234 327.44 171.68 309.984 179.18 292.176C184.57 302.486 190.078 312.679 195.937 322.754ZM160.43 181.814C177.305 178.065 195.234 175.019 213.867 172.675C207.656 182.399 201.563 192.358 195.82 202.433C190.078 212.392 184.453 222.584 179.18 232.894C171.797 215.438 165.586 198.333 160.43 181.814ZM192.539 262.535C200.273 246.367 208.711 230.551 217.617 214.969C226.523 199.387 236.133 184.274 246.211 169.395C263.789 168.106 281.719 167.403 300 167.403C318.281 167.403 336.328 168.106 353.789 169.395C363.75 184.157 373.242 199.27 382.266 214.735C391.289 230.2 399.727 246.016 407.695 262.066C399.844 278.234 391.406 294.168 382.383 309.867C373.477 325.449 363.984 340.562 354.023 355.558C336.562 356.847 318.398 357.433 300 357.433C281.602 357.433 263.789 356.847 246.563 355.792C236.367 340.913 226.758 325.683 217.734 310.101C208.711 294.519 200.391 278.703 192.539 262.535ZM404.18 322.52C410.156 312.21 415.781 301.783 421.289 291.239C428.789 308.227 435.352 325.449 441.094 343.139C422.93 347.24 404.531 350.403 386.016 352.512C392.344 342.671 398.32 332.595 404.18 322.52ZM421.055 232.894C415.547 222.584 409.922 212.275 404.062 202.199C398.32 192.241 392.344 182.399 386.133 172.675C405 175.019 423.047 178.182 439.922 182.048C434.531 199.387 428.203 216.258 421.055 232.894ZM300.234 101.092C312.539 114.448 324.141 128.507 334.922 143.035C311.719 141.98 288.398 141.98 265.195 143.035C276.68 127.921 288.516 113.862 300.234 101.092ZM164.297 29.2747C183.984 17.7933 227.695 34.1953 273.75 74.9661C276.68 77.5436 279.609 80.3553 282.656 83.1671C264.492 102.732 247.734 123.586 232.383 145.378C205.898 147.721 179.648 151.821 153.633 157.562C152.109 151.587 150.82 145.495 149.531 139.403C138.516 82.6985 145.781 39.936 164.297 29.2747ZM135.586 338.102C130.664 336.696 125.859 335.173 121.055 333.533C96.0937 325.683 67.7344 313.264 47.2266 296.979C35.3906 288.778 27.4219 276.125 25.1953 261.949C25.1953 240.51 62.2266 213.095 115.664 194.467C122.344 192.124 129.141 190.015 135.937 188.023C143.906 213.446 153.516 238.401 164.648 262.535C153.398 287.021 143.672 312.327 135.586 338.102ZM272.227 452.916C252.891 470.607 230.508 484.666 206.133 494.272C193.125 500.482 178.125 501.068 164.766 495.796C146.133 485.017 138.398 443.661 148.945 388.011C150.234 381.45 151.641 374.889 153.281 368.445C179.531 374.069 206.016 377.935 232.852 379.927C248.32 401.835 265.313 422.806 283.477 442.489C279.727 446.121 275.977 449.636 272.227 452.916ZM300.937 424.447C288.984 411.559 277.031 397.266 265.43 381.919C276.68 382.387 288.281 382.621 300 382.621C312.07 382.621 323.906 382.387 335.625 381.801C324.844 396.68 313.242 410.856 300.937 424.447ZM454.102 459.594C453.047 473.887 446.016 487.243 434.766 496.264C416.133 507.043 376.406 492.984 333.516 456.196C328.594 451.979 323.672 447.41 318.633 442.723C336.562 422.924 353.086 401.952 368.086 379.927C394.922 377.701 421.641 373.6 448.008 367.625C449.18 372.429 450.234 377.232 451.172 381.919C456.914 407.225 457.852 433.585 454.102 459.594ZM475.43 333.65C472.148 334.704 468.867 335.759 465.469 336.696C457.266 311.155 447.188 286.201 435.586 261.949C446.836 238.049 456.328 213.446 464.297 188.257C470.391 190.015 476.25 191.889 481.875 193.764C536.484 212.509 574.805 240.392 574.805 261.715C574.805 284.678 533.906 314.319 475.43 333.65ZM300 316.076C329.648 316.076 353.672 292.059 353.672 262.418C353.672 232.777 329.648 208.76 300 208.76C270.352 208.76 246.328 232.777 246.328 262.418C246.328 292.059 270.352 316.076 300 316.076Z" fill="white"/>
</svg>
