<svg width="600" height="450" viewBox="0 0 600 450" fill="none" xmlns="http://www.w3.org/2000/svg">
<path d="M282.926 339.742C282.644 340.303 282.363 340.771 282.926 339.742ZM516.427 258.297C497.574 258.292 478.972 262.616 462.059 270.935C456.528 259.795 450.81 250.059 449.873 242.757C448.748 234.238 447.529 229.183 448.842 219.073C450.154 208.962 456.06 194.639 455.966 193.609C455.872 192.58 454.654 187.431 442.561 187.337C430.469 187.244 420.064 189.678 418.846 192.861C416.71 198.677 415.048 204.657 413.878 210.741C411.722 221.694 389.693 260.825 377.226 281.233C373.102 273.275 369.633 266.254 368.883 260.637C367.758 252.119 366.54 247.063 367.852 236.953C369.165 226.843 375.07 212.52 374.976 211.49C374.883 210.46 373.664 205.311 361.572 205.218C349.48 205.124 339.075 207.558 337.856 210.741C336.637 213.924 335.325 221.413 332.888 228.621C330.451 235.83 301.111 300.985 293.424 317.93C289.487 326.542 286.113 333.47 283.675 338.15C283.301 338.899 283.019 339.367 282.832 339.742C283.113 339.274 283.301 338.806 283.301 338.993C281.238 343.018 280.02 345.265 280.02 345.265V345.359C278.426 348.354 276.645 351.069 275.802 351.069C275.239 351.069 274.02 343.205 276.083 332.44C280.488 309.785 290.893 274.586 290.8 273.369C290.706 272.714 292.768 266.629 283.957 263.352C275.427 260.263 272.333 265.412 271.583 265.412C270.833 265.412 270.271 267.284 270.271 267.284C270.271 267.284 279.738 227.592 252.086 227.592C234.838 227.592 210.841 246.502 199.03 263.633C191.625 267.659 175.596 276.365 158.723 285.633C152.255 289.19 145.599 292.841 139.319 296.305C138.85 295.836 138.475 295.368 138.007 294.9C104.448 259.14 42.4877 233.864 45.1123 185.839C46.0497 168.334 52.1427 122.369 164.253 66.5746C256.117 20.8908 329.607 33.4351 342.168 61.3322C360.353 101.118 302.892 175.167 207.467 185.839C171.096 189.865 151.974 175.823 147.193 170.58C142.225 165.057 141.475 164.776 139.6 165.806C136.507 167.491 138.475 172.359 139.6 175.261C142.412 182.657 154.13 195.763 174.096 202.316C191.625 208.026 234.276 211.209 285.831 191.269C343.762 168.989 388.85 106.922 375.632 54.9664C362.322 2.16788 274.677 -15.1508 191.812 14.2442C142.412 31.7501 88.9817 59.2727 50.5491 95.1271C4.89874 137.815 -2.41282 174.98 0.586792 190.52C11.2729 245.659 87.3882 281.607 117.853 308.194C116.353 309.036 114.947 309.785 113.635 310.534C98.3555 318.117 40.3317 348.448 25.8023 380.464C9.39816 416.786 28.5207 442.811 41.0816 446.369C80.2641 457.228 120.384 437.662 141.944 405.553C163.503 373.443 160.879 331.504 150.943 312.406C150.849 312.125 150.661 311.938 150.568 311.657C154.505 309.317 158.535 306.977 162.566 304.636C170.346 300.049 177.939 295.836 184.594 292.186C180.845 302.296 178.127 314.466 176.72 332.065C175.033 352.66 183.563 379.341 194.624 389.825C199.499 394.413 205.404 394.506 209.06 394.506C221.996 394.506 227.808 383.834 234.276 371.103C242.243 355.563 249.274 337.495 249.274 337.495C249.274 337.495 240.462 386.362 264.553 386.362C273.364 386.362 282.176 375.034 286.113 369.23V369.324C286.113 369.324 286.3 368.949 286.769 368.2C287.706 366.796 288.175 365.954 288.175 365.954V365.673C291.737 359.588 299.517 345.639 311.234 322.61C326.42 292.841 340.949 255.676 340.949 255.676C342.352 263.846 344.294 271.914 346.761 279.828C349.386 288.722 354.916 298.458 359.322 307.913C355.76 312.781 353.604 315.589 353.604 315.589C353.61 315.661 353.644 315.728 353.698 315.776C350.886 319.521 347.699 323.546 344.418 327.478C332.419 341.708 318.171 357.996 316.296 362.677C314.047 368.2 314.609 372.32 318.921 375.502C322.108 377.936 327.732 378.311 333.638 377.843C344.418 377.094 352.01 374.473 355.666 372.788C362.409 370.375 368.782 367.035 374.601 362.864C386.319 354.252 393.443 341.895 392.786 325.606C392.412 316.619 389.506 307.632 385.944 299.207C386.975 297.709 388.1 296.117 389.131 294.526C407.597 267.471 421.939 237.796 421.939 237.796C423.342 245.965 425.283 254.034 427.751 261.948C430 269.531 434.406 277.863 438.437 286.007C421.002 300.143 410.222 316.525 406.472 327.291C399.536 347.231 404.972 356.218 415.19 358.277C419.783 359.214 426.345 357.06 431.219 355.001C438.461 352.593 445.29 349.088 451.466 344.61C463.184 335.997 474.526 323.921 473.776 307.538C473.495 300.143 471.433 292.747 468.714 285.633C483.431 279.454 502.554 276.084 526.926 278.892C579.138 284.977 589.355 317.555 587.387 331.129C585.418 344.703 574.451 352.286 570.795 354.533C567.139 356.78 566.014 357.622 566.295 359.307C566.764 361.741 568.451 361.647 571.545 361.086C575.857 360.337 598.916 350.039 599.947 324.857C601.447 293.028 570.795 258.016 516.521 258.297H516.427ZM114.103 393.757C96.8557 412.574 72.6713 419.688 62.2664 413.697C51.2053 407.238 55.611 379.528 76.8895 359.494C89.8253 347.324 106.511 336.091 117.572 329.163C120.103 327.665 123.758 325.419 128.258 322.704C129.008 322.236 129.383 322.049 129.383 322.049C130.226 321.487 131.164 321.019 132.101 320.457C139.881 348.916 132.382 374.005 114.197 393.757H114.103ZM240.087 308.194C234.088 322.891 221.433 360.337 213.747 358.371C207.185 356.686 203.155 328.133 212.435 300.049C217.122 285.913 227.058 269.063 232.963 262.51C242.431 251.931 252.836 248.561 255.273 252.774C258.554 258.297 243.837 299.019 240.087 308.194ZM344.136 357.809C341.606 359.12 339.262 359.962 338.137 359.307C337.294 358.839 339.168 357.06 339.168 357.06C339.168 357.06 352.198 343.112 357.354 336.746C360.353 333.001 363.821 328.602 367.571 323.734C367.571 324.202 367.665 324.67 367.665 325.231C367.571 341.988 351.448 353.316 344.136 357.809ZM424.376 339.554C422.501 338.244 422.783 333.844 429.063 320.176C431.5 314.84 437.125 305.853 446.873 297.241C447.978 300.501 448.578 303.91 448.654 307.351C448.561 328.414 433.469 336.278 424.376 339.554Z" fill="white"/>
</svg>
