<svg width="600" height="262" viewBox="0 0 600 262" fill="none" xmlns="http://www.w3.org/2000/svg">
<path fill-rule="evenodd" clip-rule="evenodd" d="M404.909 3.00401C404.631 4.65661 404.013 7.26969 403.534 8.81175C403.056 10.3538 402.635 16.1215 402.601 21.6288C402.54 31.1407 402.642 31.804 404.644 34.8785C405.802 36.6577 408.042 39.0993 409.621 40.3041C411.199 41.5081 413.574 43.482 414.897 44.6908L417.303 46.8873L416.233 51.2812C415.646 53.6972 414.543 58.5581 413.784 62.0828C413.023 65.6075 411.922 70.474 411.335 72.8972C410.748 75.3204 409.651 80.1869 408.897 83.7116C407.545 90.0352 407.16 91.4948 403.733 103.338C400.97 112.887 398.347 120.183 396.432 123.647C392.56 130.649 387.884 140.399 387.059 143.187C385.924 147.022 379.331 154.317 374.955 156.58C373.466 157.351 371.853 158.305 371.37 158.703C370.888 159.1 366.889 162.101 362.483 165.371C358.077 168.642 353.391 172.266 352.069 173.427C344.117 180.409 340.843 183.17 339.342 184.162C338.411 184.778 337.29 185.7 336.849 186.211C336.409 186.722 334.065 188.603 331.642 190.392C326.14 194.454 325.032 195.729 322.92 200.423C318.175 210.972 323.148 215.022 338.47 213.084C351.57 211.427 351.324 211.578 367.375 195.284C381.536 180.908 390.441 170.377 389.869 168.681C389.709 168.21 388.89 167.772 388.047 167.708C387.205 167.645 386.215 167.555 385.847 167.508C385.089 167.412 389.406 161.718 392.724 158.439C393.935 157.242 394.927 155.92 394.927 155.501C394.927 155.082 395.254 154.62 395.656 154.472C396.548 154.146 402.937 141.897 402.937 140.513C402.937 139.967 403.22 139.399 403.566 139.252C403.912 139.105 405.569 134.66 407.247 129.372C408.926 124.085 410.76 118.318 411.322 116.555C412.609 112.525 414.353 106.359 416.536 98.1308C417.471 94.6061 418.719 89.9199 419.31 87.717C419.901 85.514 420.989 81.3685 421.727 78.5047C422.466 75.6409 423.548 71.6756 424.133 69.6929C424.717 67.7103 426.002 63.2363 426.987 59.7509C427.971 56.2654 429.488 52.2104 430.355 50.7389L431.934 48.0641H441.067H450.2V24.032V0H427.806H405.413L404.909 3.00401ZM498.743 80.1885C497.581 81.1025 496.12 82.8368 495.497 84.0425C493.552 87.8027 495.754 90.145 510.89 100.419C515.852 103.786 520.061 106.542 520.244 106.542C520.427 106.542 523.299 108.344 526.625 110.547C529.951 112.75 533.012 114.553 533.426 114.553C533.84 114.553 534.299 114.829 534.446 115.166C534.67 115.681 542.83 120.931 547.811 123.765C553.719 127.126 584.704 148.446 585.07 149.402C585.401 150.264 583.419 151.99 578.148 155.426C568.053 162.006 568.011 162.034 565.936 163.618C564.926 164.389 563.897 165.02 563.65 165.02C563.266 165.02 552.394 171.818 549.889 173.623C549.425 173.958 548.343 174.671 547.486 175.207C545.321 176.562 537.661 181.273 536.046 182.243C531.044 185.249 518.531 193.142 513.626 196.387C510.4 198.521 507.425 200.267 507.018 200.267C506.609 200.267 506.275 200.57 506.275 200.939C506.275 201.309 505.371 202.024 504.268 202.527C501.9 203.605 496.813 208.102 495.782 210.028C494.891 211.693 495.88 214.424 498.298 216.974C501.195 220.031 504.633 218.872 519.968 209.668C527.48 205.158 534.464 200.928 535.486 200.267C536.508 199.606 539.405 197.804 541.923 196.262C544.44 194.72 547.338 192.917 548.36 192.256C551.23 190.401 561.519 183.966 563.438 182.826C566.763 180.851 581.187 171.46 582.143 170.648C582.674 170.197 583.32 169.826 583.576 169.826C583.834 169.826 585.02 169.148 586.214 168.319C587.408 167.49 590.998 165.099 594.192 163.005L600 159.199L599.982 148.692L599.962 138.184L593.591 134.579C590.088 132.597 587.212 130.704 587.201 130.374C587.192 130.044 586.834 129.773 586.409 129.773C585.657 129.773 576.544 124.222 574.6 122.579C574.068 122.13 573.32 121.762 572.938 121.762C572.557 121.762 570.47 120.501 568.301 118.959C566.132 117.417 563.905 116.155 563.354 116.155C562.802 116.155 562.35 115.836 562.35 115.448C562.35 115.058 561.719 114.54 560.948 114.295C559.278 113.765 555.205 111.332 553.758 109.999C553.191 109.477 552.009 108.822 551.13 108.543C550.251 108.264 549.533 107.7 549.533 107.289C549.533 106.879 549.165 106.542 548.716 106.542C548.266 106.542 546.374 105.562 544.51 104.366C542.647 103.169 540.191 101.636 539.052 100.961C496.246 75.5511 501.316 78.1642 498.743 80.1885ZM93.3244 84.9356C90.2403 86.6772 86.996 88.4652 86.1148 88.9089C84.4278 89.7589 83.4392 90.3597 77.8638 93.9252C75.9693 95.1372 74.1621 96.1282 73.8481 96.1282C73.5332 96.1282 71.4032 97.3899 69.1129 98.9319C66.8235 100.474 64.6053 101.736 64.184 101.736C63.7626 101.736 63.298 102.02 63.1506 102.368C62.9415 102.863 49.8465 110.987 40.2553 116.571C39.4838 117.022 37.3963 118.283 35.6171 119.375C30.6689 122.414 29.6668 123.023 23.6315 126.663C20.5474 128.523 17.9039 130.345 17.7573 130.71C17.6099 131.076 17.0283 131.375 16.4636 131.375C15.8988 131.375 14.577 132.049 13.526 132.872C12.475 133.696 10.3538 135.07 8.81175 135.926C7.26969 136.782 4.65661 138.306 3.00401 139.314L0 141.147V151.706V162.266L7.25127 166.647C11.239 169.057 15.1146 171.389 15.8627 171.83C16.6109 172.271 19.8481 174.344 23.0555 176.436C26.2638 178.528 29.2077 180.24 29.5979 180.24C29.988 180.24 30.427 180.517 30.5744 180.854C30.721 181.192 33.4822 183.084 36.7097 185.06C39.9372 187.035 43.7447 189.372 45.1714 190.254C60.1137 199.487 63.6368 201.624 65.5129 202.593C66.7105 203.213 67.8705 203.934 68.0908 204.195C68.6395 204.849 71.283 206.486 73.6983 207.666C74.7997 208.205 75.8812 208.837 76.1015 209.07C76.7383 209.744 86.3095 215.487 86.7965 215.487C87.0384 215.487 88.8384 216.569 90.7971 217.891C92.7557 219.212 94.7119 220.294 95.1453 220.294C95.5778 220.294 96.3805 220.834 96.9292 221.495C98.4521 223.33 99.9917 222.95 102.611 220.093C105.984 216.416 106.355 214.246 104.036 211.75C101.841 209.384 93.3092 202.67 92.4993 202.67C92.1989 202.67 90.6376 201.678 89.0307 200.467C87.4238 199.256 85.4804 197.904 84.7121 197.463C83.9439 197.023 79.9802 194.521 75.9036 191.905C71.827 189.288 66.1482 185.661 63.2844 183.845C60.4206 182.029 54.7538 178.402 50.6908 175.786C46.6278 173.169 42.6625 170.664 41.879 170.217C39.8555 169.066 35.722 166.337 35.247 165.839C35.0267 165.607 33.9076 164.935 32.7597 164.345C29.6587 162.75 18.1578 153.931 17.3904 152.559C16.3338 150.67 17.4753 148.453 20.0531 147.385C21.3605 146.844 22.4299 146.084 22.4299 145.697C22.4299 145.31 22.7792 144.993 23.2061 144.993C23.6331 144.993 26.6067 143.286 29.815 141.199C33.0224 139.113 36.5768 136.859 37.7127 136.193C39.9701 134.868 54.0745 126.191 57.5271 124.004C58.7111 123.254 60.479 122.172 61.4563 121.601C62.4336 121.029 66.7314 118.398 71.0067 115.754C75.282 113.111 79.7087 110.402 80.8454 109.735C81.9813 109.069 85.5356 106.815 88.7431 104.728C91.9514 102.642 94.8953 100.935 95.2854 100.935C95.6756 100.935 96.1145 100.664 96.2619 100.334C96.4085 100.004 98.0011 98.734 99.8003 97.5132C107.551 92.2542 108.239 90.0008 103.645 84.9156C102.052 83.1517 100.339 81.7226 99.8403 81.7394C99.3405 81.7554 96.4085 83.1941 93.3244 84.9356ZM312.412 83.2582C309.263 84.2163 305.217 86.4352 300 90.0665C290.378 96.7626 286.363 99.6401 285.469 100.479C284.967 100.95 283.556 102.056 282.333 102.937C281.11 103.818 279.719 104.905 279.24 105.353C278.762 105.801 275.127 108.668 271.162 111.723C267.196 114.779 263.772 117.479 263.551 117.722C263.331 117.965 260.447 120.315 257.143 122.943C253.838 125.571 250.238 128.544 249.14 129.549C248.044 130.553 246.915 131.375 246.632 131.375C246.349 131.375 245.7 133.037 245.189 135.067C243.229 142.85 247.006 146.595 256.815 146.595C266.023 146.595 272.112 144.071 279.847 137.048C309.272 110.327 321.094 96.7754 321.851 88.8961C322.164 85.6382 321.96 84.9557 320.341 83.8214C318.363 82.4355 315.73 82.2489 312.412 83.2582ZM367.615 98.102C366.031 98.6852 363.508 99.785 362.007 100.546C358.365 102.394 347.333 109.843 346.996 110.683C346.849 111.049 346.391 111.348 345.977 111.348C345.227 111.348 334.862 119.145 333.977 120.377C332.993 121.746 318.376 132.157 317.423 132.166C316.873 132.171 316.422 132.537 316.422 132.977C316.422 133.418 315.926 133.778 315.32 133.778C313.667 133.778 300.844 143.848 299.808 145.959C294.434 156.918 294.607 162.331 300.423 165.182C304.866 167.36 312.381 166.741 323.421 163.288C328.226 161.785 329.006 161.128 343.848 146.067C361.867 127.781 359.848 129.912 365.36 123.364C375.236 111.634 379.063 103.905 376.69 100.488C375.822 99.2371 372.268 96.9204 371.317 96.9853C370.864 97.0166 369.199 97.5188 367.615 98.102ZM305.607 127.194C303.405 128.833 300.881 130.907 300 131.804C299.119 132.7 296.415 134.95 293.992 136.803C291.569 138.656 289.226 140.466 288.785 140.825C288.344 141.184 285.322 142.81 282.069 144.437C277.559 146.693 275.18 147.397 272.056 147.396C269.801 147.395 265.051 147.8 261.498 148.297C256.019 149.063 254.357 149.001 250.536 147.89C244.891 146.249 242.724 143.741 242.724 138.849C242.724 135.444 242.663 135.356 240.921 136.283C239.929 136.81 238.218 138.061 237.116 139.063C235.344 140.674 232.418 143.106 219.893 153.376C204.746 165.797 195.388 173.583 192.857 175.872L189.853 178.589V202.245C189.853 218.096 190.128 225.901 190.686 225.901C191.554 225.901 196.043 222.936 197.454 221.433C197.9 220.958 201.509 218.078 205.474 215.035C213.841 208.611 214.825 207.832 218.311 204.873C219.738 203.662 221.309 202.67 221.801 202.67C222.294 202.67 222.697 202.396 222.697 202.061C222.697 201.727 225.262 199.496 228.397 197.105C231.531 194.715 234.505 192.362 235.005 191.877C235.505 191.393 237.356 189.93 239.119 188.627C240.881 187.324 242.503 186.065 242.724 185.83C242.944 185.595 246.368 182.902 250.334 179.846C254.299 176.79 257.904 173.884 258.344 173.388C258.785 172.891 264.553 168.387 271.162 163.377C277.77 158.368 283.899 153.597 284.78 152.774C285.661 151.951 290.257 148.339 294.993 144.747C299.73 141.155 303.605 137.938 303.605 137.599C303.605 137.26 304.056 136.971 304.606 136.957C305.157 136.943 306.819 135.713 308.301 134.224C310.338 132.176 311.096 130.619 311.41 127.841C311.928 123.239 311.055 123.142 305.607 127.194ZM359.66 141.572C358.572 142.335 355.698 144.95 353.273 147.386C343.897 156.804 335.388 161.982 322.83 165.912C318.051 167.407 314.99 167.795 307.864 167.808C299.035 167.824 298.87 167.79 296.449 165.471C294.214 163.331 293.992 162.66 293.992 158.05C293.992 155.263 294.429 152.282 294.963 151.427C296.783 148.512 294.929 148.854 290.652 152.221C288.304 154.069 286.262 155.903 286.115 156.296C285.968 156.688 285.488 157.009 285.048 157.009C284.378 157.009 277.654 162.014 276.368 163.471C275.724 164.201 258.874 177.256 255.876 179.347C254.37 180.398 253.138 181.57 253.138 181.951C253.138 182.332 252.597 182.644 251.936 182.644C251.275 182.644 250.734 182.917 250.734 183.252C250.734 183.587 248.121 185.815 244.927 188.203C241.732 190.591 238.758 192.931 238.318 193.402C236.523 195.322 229.983 200.267 229.238 200.267C228.798 200.267 228.318 200.599 228.171 201.005C228.024 201.411 225.02 203.967 221.495 206.684C214.841 211.816 212.76 213.447 205.158 219.493C202.665 221.475 198.202 224.996 195.24 227.317L189.853 231.536V246.342V261.148H213.501H237.151L242.54 256.96C245.505 254.656 248.111 252.564 248.331 252.31C248.551 252.055 253.598 248.108 259.546 243.536C265.494 238.965 271.459 234.299 272.801 233.166C274.144 232.034 276.246 230.387 277.472 229.506C278.699 228.625 280.484 227.241 281.44 226.431C282.396 225.622 285.611 223.101 288.585 220.832C291.558 218.563 293.992 216.431 293.992 216.096C293.992 215.761 294.395 215.487 294.888 215.487C295.38 215.487 296.94 214.496 298.353 213.284C301.062 210.962 301.276 210.794 317.16 198.437C334.106 185.254 334.98 184.496 349.41 170.45C354.556 165.441 360.053 159.43 361.626 157.093C364.255 153.186 364.486 152.372 364.486 147.001C364.486 142.413 364.214 141.055 363.219 140.673C361.609 140.056 361.949 139.969 359.66 141.572ZM380.468 194.342C372.691 202.293 357.811 211.504 350.655 212.797C349.23 213.054 346.465 213.783 344.511 214.417C342.518 215.063 337.488 215.61 333.064 215.662C326.317 215.74 324.857 215.52 323 214.141C319.265 211.367 318.366 208.975 319.317 204.332C320.309 199.486 319.599 199.154 315.753 202.667C314.308 203.987 308.73 208.456 303.358 212.596C297.987 216.737 292.69 220.877 291.589 221.797C288.965 223.987 289.126 223.859 280.774 230.305C276.809 233.366 273.385 236.06 273.164 236.293C272.358 237.144 264.599 243.283 258.945 247.544C255.751 249.95 253.138 252.194 253.138 252.529C253.138 252.864 252.597 253.138 251.936 253.138C251.275 253.138 250.734 253.47 250.734 253.876C250.734 254.282 249.13 255.634 247.169 256.88C245.208 258.126 243.417 259.597 243.188 260.147C242.859 260.942 253.597 261.148 295.327 261.148H347.881L349.574 259.317C350.506 258.309 353.251 255.155 355.674 252.308C358.097 249.46 360.297 246.949 360.562 246.729C361.48 245.968 368.125 237.497 372.189 231.909C376.791 225.582 381.642 217.451 382.52 214.593C382.842 213.543 383.386 212.323 383.726 211.883C384.588 210.768 386.117 200.358 386.103 195.707C386.083 189.521 385.355 189.345 380.468 194.342Z" fill="white"/>
</svg>
