<svg width="560" height="560" viewBox="0 0 560 560" fill="none" xmlns="http://www.w3.org/2000/svg">
<path fill-rule="evenodd" clip-rule="evenodd" d="M45.5051 0.268883C34.3059 2.23877 24.6318 7.41966 15.9883 16.0763C8.51069 23.5657 4.96211 29.254 1.84726 38.7419L0 44.3704V280.052V515.733L1.76445 521.061C5.08837 531.097 8.51807 536.617 16.1531 544.22C20.1149 548.164 23.9119 551.393 24.5916 551.393C25.2713 551.393 25.8272 551.693 25.8272 552.061C25.8272 552.884 33.6754 556.522 39.7657 558.52C44.0711 559.933 54.9628 560 280 560H515.725L521.209 558.197C528.092 555.936 532.573 553.66 537.924 549.707C542.6 546.253 551.382 536.793 551.388 535.202C551.389 534.639 551.692 534.178 552.06 534.178C552.883 534.178 556.521 526.331 558.52 520.242C559.933 515.937 560 505.047 560 280.052V44.3704L558.153 38.7419C554.994 29.1212 551.527 23.5599 544.026 16.0886C536.714 8.80423 531.154 5.27516 521.783 1.97071L516.545 0.122965L282.05 0.0155767C153.078 -0.0434461 46.6325 0.0705007 45.5051 0.268883ZM474.729 262.354C489.329 265.083 498.593 267.434 501.991 269.273L503.836 270.272V295.246C503.836 308.982 503.691 320.22 503.513 320.22C503.336 320.22 499.738 318.465 495.519 316.32C487.115 312.049 481.428 309.583 479.848 309.527C479.287 309.507 477.353 308.952 475.549 308.294C470.293 306.375 452.833 303.824 445.021 303.833C431.38 303.849 417.166 308.074 410.982 313.95C405.836 318.84 404.211 322.442 404.268 328.827C404.309 333.531 404.721 335.253 406.547 338.378C411.862 347.473 422.456 354.224 450.132 366.152C475.915 377.265 490.368 386.796 500.46 399.339C509.608 410.708 513.471 421.644 514.209 438.266C514.924 454.36 511.62 467.79 504.126 479.254C489.239 502.027 462.868 513.02 420.205 514.238C403.037 514.728 385.957 512.956 370.258 509.054C361.032 506.761 348.045 501.864 347.052 500.303C346.292 499.107 346.204 447.765 346.961 447.007C347.263 446.707 348.093 446.972 348.806 447.599C351.387 449.868 364.949 458.513 368.551 460.186C379.822 465.422 388.974 468.176 400.527 469.809C425.735 473.372 446.374 467.894 453.452 455.762C456.557 450.442 456.782 442.135 453.967 436.796C452.194 433.431 443.395 423.51 442.184 423.51C441.865 423.51 439.896 422.356 437.807 420.947C434.246 418.545 418.386 410.394 417.271 410.394C416.992 410.394 415.6 409.868 414.179 409.226C412.759 408.584 408.829 406.909 405.447 405.503C398.48 402.606 388.011 397.546 384.949 395.595C370.668 386.494 362.289 379.238 357.547 371.865C356.243 369.836 354.58 367.254 353.853 366.127C349.262 359.013 345.589 343.995 345.604 332.404C345.638 308.18 357.497 287.759 378.859 275.145C382.687 272.884 386.038 271.034 386.307 271.034C386.574 271.034 388.869 270.151 391.406 269.07C398.983 265.843 412.057 262.769 426.354 260.854C432.994 259.964 467.702 261.041 474.729 262.354ZM325.095 288.24V310.366L290.044 310.579L254.993 310.793L254.784 411.008L254.576 511.224H226.702H198.829V410.804V310.383H163.982H129.136V288.249V266.116H227.116H325.095V288.24Z" fill="white"/>
</svg>
