<svg width="494" height="476" viewBox="0 0 494 476" fill="none" xmlns="http://www.w3.org/2000/svg">
<path d="M485.944 188.371L485.268 186.633L417.999 11.101C416.648 7.7217 414.235 4.72858 411.05 2.79754C408.734 1.2527 406.128 0.383733 403.329 0.0940766C400.53 -0.19558 397.828 0.190628 395.222 1.15615C392.616 2.12167 390.3 3.66651 388.37 5.79066C386.536 7.81825 385.185 10.2321 384.413 12.9355L339.052 151.971H155.196L109.739 12.9355C108.967 10.2321 107.615 7.81825 105.782 5.79066C103.851 3.76306 101.535 2.12167 98.9294 1.15615C96.4201 0.190628 93.6212 -0.19558 90.8223 0.0940766C88.12 0.383733 85.4177 1.2527 83.1014 2.79754C79.9165 4.72858 77.5037 7.7217 76.1525 11.101L8.97996 186.633L8.20786 188.371C-1.44337 213.668 -2.60151 241.475 4.82993 267.544C12.3579 293.516 28.0894 316.496 49.7081 332.813L49.9012 333.006L50.4802 333.392L152.783 410.151L203.549 448.483L234.433 471.848C238.004 473.683 242.443 476 246.979 476C251.515 476 255.955 473.683 259.526 471.848L290.41 448.483L341.175 410.151L444.154 333.006L444.443 332.717C466.062 316.399 481.793 293.516 488.453 267.544C496.753 241.475 495.595 213.668 485.944 188.371Z" fill="white"/>
</svg>
